<?xml version="1.0" encoding="UTF-8"?>
<svg id="Layer_2" data-name="Layer 2" xmlns="http://www.w3.org/2000/svg" viewBox="0 0 594.99 431.03">
  <defs>
    <style>
      .cls-1 {
        fill: #01ab4f;
      }

      .cls-2 {
        fill: #72bf44;
      }

      .cls-3 {
        fill: #818181;
      }

      .cls-4 {
        fill: #fdfdfd;
      }

      .cls-5 {
        fill: #f9f9f9;
      }

      .cls-6 {
        fill: #d3d3d3;
      }
    </style>
  </defs>
  <g id="Layer_1-2" data-name="Layer 1">
    <g>
      <path class="cls-2" d="m297.17,0c6.96,3.66,13.8,7.39,16.27,15.78.43,1.46,1.74,2.8,2.92,3.89,8.75,8.07,15.61,18.25,25.95,24.47,14.43,8.69,29.36,16.54,43.84,25.15,15.09,8.98,30.51,17.38,45.49,26.56,18.39,11.28,37.47,21.42,55.89,32.65,13.63,8.31,27.05,16.91,39.23,27.51,11.36,9.89,20.95,21.04,29.19,33.47,16.94,25.53,29.69,52.83,35.04,83.28,1.8,10.25,2.52,20.53,3.02,30.91,1.95,41.06.36,82.13.81,123.19-4.89.65-10,.46-14.18,3.75-1.24.14-2.48.27-3.72.41-15.31-.05-30.63-.04-45.94-.18-16.97-.16-31.87-15.09-31.83-31.63.05-22.31.22-44.62.28-66.92.05-17.37-2.61-34.48-8.1-51.24-5.65-17.23-14.65-32.07-26.34-45.73-9.11-10.64-19.64-19.32-31.16-27.17-14.26-9.73-29.6-17.53-44.25-26.53-14.09-8.65-28.95-15.95-42.89-24.79-12.94-8.21-26.64-15.02-39.95-22.51-7.51-4.23-15.44-2.79-22.93,1.79-9.56,5.84-19.45,11.14-29.15,16.75-23.77,13.74-47.73,27.15-71.19,41.4-17.79,10.8-35.92,21.35-50.43,36.7-18.06,19.09-29.74,41.62-34.43,67.45-1.88,10.32-1.95,20.94-2.28,31.5-.72,22.86-.3,45.73-.91,68.59-.46,17.28-14.59,31.97-32.43,32.32-19.64.38-39.29.04-58.94.17-2.97.02-4.04-.68-4.01-3.85.24-35.13-.21-70.27.74-105.37.36-13.51.05-27.11,1.71-40.59,2.22-18.08,6.48-35.58,13.27-52.55,11.18-27.94,28.86-51.23,51.04-71.01,12.09-10.79,25.42-20.25,39.54-28.47,10.11-5.88,19.85-12.4,29.94-18.31,17.32-10.15,34.79-20.04,52.18-30.07,19.57-11.29,38.92-22.97,58.75-33.78,12.45-6.79,21.57-17.08,31.45-26.67,1.04-1.01,2.35-2.28,2.53-3.56,1.04-7.38,6.75-10.26,12.27-13.47,1.4-.81,2.51-2.15,3.75-3.25Z"/>
      <path class="cls-1" d="m416.99,309.09c-15.65-11.21-32.26-20.86-49.1-30.15-12.44-6.87-26.05-11.57-37.63-20-13.83-10.07-21.21-27.28-17.14-44.41,1.73-7.27,1.86-7.23,8.78-3.43,12.14,6.67,24.27,13.37,36.44,19.99,14.79,8.03,29.75,15.75,44.39,24.03,11.94,6.75,19.47,17.22,22.33,30.64,1.39,6.53,3.14,13.13,2.25,19.97-3.17,1.94-6.42,3.66-10.32,3.36Z"/>
      <path class="cls-1" d="m173.45,305.98c.53-17.18,3.27-33.61,17.15-45.69,7.63-6.64,17-10.51,25.78-15.32,18.86-10.32,37.66-20.76,56.55-31.04,3.52-1.92,7.27-3.41,10.73-5.51,1.09-.66,3.28-1.35,3.62,1.52,1.41,11.97,2.1,23.73-3.99,34.96-4.62,8.51-11.91,13.87-19.93,18.41-6.91,3.91-14.25,7.05-21.28,10.76-20.2,10.64-40.14,21.74-58.76,35.05-3.74.38-6.47-2.45-9.88-3.13Z"/>
      <path class="cls-2" d="m416.99,309.09c3.9.3,7.15-1.41,10.32-3.36.45,8.15-.4,15.89-3.23,23.82-1.63,4.57-2.4,9.66-4.43,14.3-6,13.7-16.27,23.64-28.82,30.98-13.94,8.15-26.41,18.1-38.53,28.6-5.09,4.41-5.31,4.4-7.19-2.02-4.62-15.77-.02-29.4,9.87-41.72,5.31-6.62,12.51-10.95,19.13-16.06,7.08-5.46,14.14-10.94,21.64-15.76,8.09-5.2,15.31-11.23,21.24-18.8Z"/>
      <path class="cls-2" d="m173.45,305.98c3.41.68,6.14,3.51,9.88,3.13,8.48,9.28,18.33,16.92,28.77,23.85.2.5.43.96,1.12.74,5.29,3.75,10.58,7.5,15.87,11.25.2.51.44.96,1.12.76,5.46,3.76,10.77,7.69,15.18,12.73,11.48,13.12,14.44,28.07,9.91,44.75-.86,3.17-1.24,4.6-4.72,1.63-12.91-11.02-25.93-21.82-40.85-30.3-12.06-6.86-22.07-16.79-28.02-29.36-3.79-7.99-8.13-16.22-7.03-26.24.41-3.74-1.43-8.51-1.23-12.94Z"/>
      <path class="cls-3" d="m291.07,337.99c-3.08,1.95-5.79,6.6-9.58,4.61-3.63-1.91-.42-6.19-.26-9.41.17-3.44.06-7.09,1.23-10.21,1.22-3.28-.68-4.23-2.59-4.52-7.37-1.14-13.51-5.51-20.52-7.5-2-.57-2.87-2.1-1.67-3.79,5.44-7.62,10.24-15.65,14.65-23.88,2.75-5.12,6.83-5.13,11.3-3.68,5.62,1.82,11.21,3.84,16.62,6.23,2.4,1.06,4.36.75,6.5-.05,5.09-1.9,10.15-3.87,15.25-5.74,6.92-2.54,9.63-1.58,13.34,4.52,4.22,6.94,8.21,14.05,12.8,20.74,2.59,3.77,1.17,4.95-2.23,6.22-6.01,2.25-11.84,5.08-17.95,6.95-4.01,1.23-4.5,3.85-3.6,6.74,1.49,4.76.96,9.81,2.59,14.49.45,1.29.03,2.43-1.19,2.91-1.55.61-3.47,1-4.67-.35-4.03-4.52-10.12-6.13-14.3-10.4-1.92-1.96-3.74-2.04-6.04-.19-2.66,2.14-5.73,3.78-8.62,5.63-.65-.22-.87.22-1.07.7Zm13.2-36.42c.27,4.95.55,9.91.85,15.39,10.69-4.19,21.08-8.24,31.46-12.36,2.38-.94,1.49-2.53.56-4.04-2.95-4.82-6.13-9.52-8.77-14.51-1.79-3.39-3.92-3.39-6.92-2.14-4.72,1.97-9.57,3.63-14.27,5.67-2.91,1.26-5.42,1.04-8.32-.22-5.09-2.2-10.44-3.8-15.6-5.84-1.97-.78-3.04-.32-4.05,1.4-3.23,5.5-6.4,11.05-9.91,16.37-1.34,2.03-1.06,2.95.99,3.66,10.02,3.51,19.57,8.27,29.79,11.28,2.38.7,2.91.24,2.88-2.05-.06-4.16.07-8.32.12-12.47.41-.04.81-.09,1.22-.13Z"/>
      <path class="cls-5" d="m230.21,345.71c-.68.2-.92-.26-1.12-.76.37.25.75.51,1.12.76Z"/>
      <path class="cls-5" d="m291.07,337.99c.19-.48.41-.92,1.07-.7-.36.23-.71.46-1.07.7Z"/>
      <path class="cls-5" d="m213.22,333.71c-.68.22-.91-.24-1.12-.74.37.25.74.5,1.12.74Z"/>
      <path class="cls-4" d="m303.06,301.7c-.05,4.16-.18,8.32-.12,12.47.03,2.29-.49,2.76-2.88,2.05-10.22-3.01-19.77-7.77-29.79-11.28-2.04-.72-2.33-1.63-.99-3.66,3.51-5.32,6.68-10.87,9.91-16.37,1.01-1.72,2.08-2.18,4.05-1.4,5.17,2.04,10.51,3.64,15.6,5.84,2.9,1.25,5.41,1.48,8.32.22,4.69-2.03,9.54-3.7,14.27-5.67,3-1.25,5.13-1.24,6.92,2.14,2.64,4.99,5.81,9.69,8.77,14.51.93,1.51,1.82,3.1-.56,4.04-10.37,4.12-20.77,8.17-31.46,12.36-.3-5.48-.58-10.44-.85-15.39-.47-.57-.87-.52-1.22.13Zm-10.26,4.69c-4.83-2.31-9.42-5.74-15.26-5.76,4.45,3.41,9.65,4.93,15.26,5.76Zm4.92-10.72c-4.76-2.89-9.59-5.59-15.34-5.96,4.6,3.3,9.79,5.09,15.34,5.96Zm11.51-1.1c.15.52.29,1.04.44,1.55,5.04-1.41,9.88-3.29,14.56-5.55l-.7-1.67c-4.77,1.89-9.53,3.78-14.3,5.67Zm19.76,6.09c-5.29.81-10.31,2.51-14.7,5.79,5.32-.78,10.14-2.84,14.7-5.79Zm-2.31-5.91c-5.31,1.15-10.49,2.62-14.88,6.08,5.34-1.07,10.45-2.73,14.88-6.08Zm-37.95,2.21c-1.73-.55-2.33-.7-2.89-.94-1.04-.45-2.05-.97-3.08-1.42-1.25-.55-2.7-.56-1.79,1.19.96,1.82,3.32,1.79,5.24,2.08.41.06.87-.3,2.52-.91Z"/>
      <path class="cls-6" d="m303.06,301.7c.34-.65.75-.69,1.22-.13-.4.04-.81.08-1.22.13Z"/>
      <path class="cls-3" d="m292.79,306.39c-5.61-.84-10.81-2.35-15.26-5.76,5.85.03,10.43,3.46,15.26,5.76Z"/>
      <path class="cls-3" d="m297.72,295.67c-5.55-.87-10.74-2.65-15.34-5.96,5.75.37,10.58,3.06,15.34,5.96Z"/>
      <path class="cls-3" d="m309.23,294.56c4.77-1.89,9.53-3.78,14.3-5.67l.7,1.67c-4.68,2.25-9.51,4.14-14.56,5.55-.15-.52-.29-1.04-.44-1.55Z"/>
      <path class="cls-3" d="m328.99,300.65c-4.56,2.95-9.38,5.01-14.7,5.79,4.38-3.27,9.4-4.98,14.7-5.79Z"/>
      <path class="cls-3" d="m326.68,294.74c-4.44,3.36-9.54,5.02-14.88,6.08,4.39-3.47,9.57-4.94,14.88-6.08Z"/>
      <path class="cls-3" d="m288.73,296.95c-1.65.62-2.11.97-2.52.91-1.92-.29-4.28-.26-5.24-2.08-.92-1.75.53-1.74,1.79-1.19,1.03.46,2.04.98,3.08,1.42.56.24,1.16.38,2.89.94Z"/>
    </g>
  </g>
</svg>